<svg width="52" height="54" viewBox="0 0 52 54" fill="none" xmlns="http://www.w3.org/2000/svg">
<path d="M19.384 1.61106C23.1835 -0.53702 27.8647 -0.537021 31.6643 1.61106L44.9081 9.0985C48.7076 11.2466 51.0482 15.2164 51.0482 19.5126V34.4874C51.0482 38.7836 48.7076 42.7534 44.9081 44.9015L31.6643 52.3889C27.8647 54.537 23.1835 54.537 19.384 52.3889L6.14015 44.9015C2.34061 42.7534 0 38.7836 0 34.4874V19.5126C0 15.2164 2.34061 11.2466 6.14015 9.0985L19.384 1.61106Z" fill="white"/>
<path d="M25.5241 16.2313C17.1226 7.69643 -3.88632 22.6312 25.5241 41.831C54.9346 22.6262 33.9257 7.69643 25.5241 16.2313Z" fill="#5F40A6"/>
</svg>
